<mxfile host="app.diagrams.net" modified="2021-03-15T20:09:48.930Z" agent="5.0 (Windows NT 10.0; Win64; x64) AppleWebKit/537.36 (KHTML, like Gecko) Chrome/88.0.4324.190 Safari/537.36" etag="RSdqZYrO6ROsEsNlwVE5" version="14.4.8" type="github">
  <diagram id="QyJc0ShGMjxp9rkgd8LT" name="Page-1">
    <mxGraphModel dx="2578" dy="1353" grid="0" gridSize="10" guides="1" tooltips="1" connect="1" arrows="1" fold="1" page="0" pageScale="1" pageWidth="850" pageHeight="1100" math="0" shadow="0">
      <root>
        <mxCell id="0" />
        <mxCell id="1" parent="0" />
        <mxCell id="R52Dz4G4GM2qhA3vl9-M-6" value="" style="rounded=1;whiteSpace=wrap;html=1;dashed=1;fillColor=none;" parent="1" vertex="1">
          <mxGeometry x="-220" y="10" width="740" height="670" as="geometry" />
        </mxCell>
        <mxCell id="R52Dz4G4GM2qhA3vl9-M-46" value="" style="endArrow=classic;html=1;entryX=0.05;entryY=0.5;entryDx=0;entryDy=0;entryPerimeter=0;exitX=0.875;exitY=0.5;exitDx=0;exitDy=0;exitPerimeter=0;" parent="1" source="R52Dz4G4GM2qhA3vl9-M-1" target="R52Dz4G4GM2qhA3vl9-M-10" edge="1">
          <mxGeometry width="50" height="50" relative="1" as="geometry">
            <mxPoint x="-410" y="480" as="sourcePoint" />
            <mxPoint x="-360" y="430" as="targetPoint" />
          </mxGeometry>
        </mxCell>
        <mxCell id="R52Dz4G4GM2qhA3vl9-M-47" value="" style="endArrow=classic;html=1;entryX=0;entryY=0.5;entryDx=0;entryDy=0;entryPerimeter=0;exitX=0.955;exitY=0.5;exitDx=0;exitDy=0;exitPerimeter=0;" parent="1" source="R52Dz4G4GM2qhA3vl9-M-10" target="R52Dz4G4GM2qhA3vl9-M-43" edge="1">
          <mxGeometry width="50" height="50" relative="1" as="geometry">
            <mxPoint x="-345" y="351.25" as="sourcePoint" />
            <mxPoint x="-142.5" y="352.5" as="targetPoint" />
          </mxGeometry>
        </mxCell>
        <mxCell id="R52Dz4G4GM2qhA3vl9-M-50" value="Key Vault" style="shape=image;html=1;verticalAlign=top;verticalLabelPosition=bottom;labelBackgroundColor=#ffffff;imageAspect=0;aspect=fixed;image=https://cdn4.iconfinder.com/data/icons/internet-security-flat-2/32/Internet_Security_data_lock_Server_storage_hosting-128.png;shadow=0;glass=0;dashed=1;fillColor=none;" parent="1" vertex="1">
          <mxGeometry x="168" y="-85" width="40" height="40" as="geometry" />
        </mxCell>
        <mxCell id="R52Dz4G4GM2qhA3vl9-M-56" value="" style="endArrow=classic;html=1;entryX=0;entryY=0.5;entryDx=0;entryDy=0;entryPerimeter=0;exitX=1;exitY=0.5;exitDx=0;exitDy=0;exitPerimeter=0;" parent="1" source="R52Dz4G4GM2qhA3vl9-M-16" target="R52Dz4G4GM2qhA3vl9-M-14" edge="1">
          <mxGeometry width="50" height="50" relative="1" as="geometry">
            <mxPoint x="180" y="440" as="sourcePoint" />
            <mxPoint x="230" y="390" as="targetPoint" />
          </mxGeometry>
        </mxCell>
        <mxCell id="R52Dz4G4GM2qhA3vl9-M-57" value="" style="group" parent="1" vertex="1" connectable="0">
          <mxGeometry x="290" y="240" width="120" height="197.5" as="geometry" />
        </mxCell>
        <mxCell id="R52Dz4G4GM2qhA3vl9-M-52" value="" style="rounded=1;whiteSpace=wrap;html=1;shadow=0;glass=0;dashed=1;fillColor=none;" parent="R52Dz4G4GM2qhA3vl9-M-57" vertex="1">
          <mxGeometry y="26.25" width="120" height="153.75" as="geometry" />
        </mxCell>
        <mxCell id="R52Dz4G4GM2qhA3vl9-M-14" value="" style="verticalLabelPosition=bottom;html=1;verticalAlign=top;align=center;strokeColor=none;fillColor=#00BEF2;shape=mxgraph.azure.sql_database;shadow=0;glass=0;dashed=1;" parent="R52Dz4G4GM2qhA3vl9-M-57" vertex="1">
          <mxGeometry x="41.25" y="76.25" width="37.5" height="50" as="geometry" />
        </mxCell>
        <mxCell id="R52Dz4G4GM2qhA3vl9-M-53" value="Subnet" style="verticalLabelPosition=bottom;html=1;verticalAlign=top;align=center;strokeColor=none;fillColor=#00BEF2;shape=mxgraph.azure.virtual_network;pointerEvents=1;shadow=0;glass=0;dashed=1;container=0;" parent="R52Dz4G4GM2qhA3vl9-M-57" vertex="1">
          <mxGeometry x="35" y="170" width="50" height="27.500000000000004" as="geometry" />
        </mxCell>
        <mxCell id="R52Dz4G4GM2qhA3vl9-M-54" value="NSG" style="shape=image;html=1;verticalAlign=top;verticalLabelPosition=bottom;labelBackgroundColor=#ffffff;imageAspect=0;aspect=fixed;image=https://cdn0.iconfinder.com/data/icons/small-n-flat/24/678094-shield-128.png;shadow=0;glass=0;dashed=1;fillColor=none;container=0;" parent="R52Dz4G4GM2qhA3vl9-M-57" vertex="1">
          <mxGeometry x="40" width="40" height="40" as="geometry" />
        </mxCell>
        <mxCell id="R52Dz4G4GM2qhA3vl9-M-16" value="Web&amp;nbsp;App" style="verticalLabelPosition=bottom;html=1;verticalAlign=top;align=center;strokeColor=none;fillColor=#00BEF2;shape=mxgraph.azure.azure_website;pointerEvents=1;shadow=0;glass=0;dashed=1;" parent="1" vertex="1">
          <mxGeometry x="120" y="316.25" width="50" height="50" as="geometry" />
        </mxCell>
        <mxCell id="R52Dz4G4GM2qhA3vl9-M-48" value="" style="endArrow=classic;html=1;entryX=0;entryY=0.5;entryDx=0;entryDy=0;entryPerimeter=0;exitX=1;exitY=0.5;exitDx=0;exitDy=0;exitPerimeter=0;" parent="1" source="R52Dz4G4GM2qhA3vl9-M-43" target="R52Dz4G4GM2qhA3vl9-M-16" edge="1">
          <mxGeometry x="-30" y="230" width="50" height="50" as="geometry">
            <mxPoint x="-97.25" y="352.5" as="sourcePoint" />
            <mxPoint y="351.25" as="targetPoint" />
          </mxGeometry>
        </mxCell>
        <mxCell id="R52Dz4G4GM2qhA3vl9-M-63" value="" style="group" parent="1" vertex="1" connectable="0">
          <mxGeometry x="599" y="485" width="160" height="138" as="geometry" />
        </mxCell>
        <mxCell id="R52Dz4G4GM2qhA3vl9-M-64" value="" style="group" parent="R52Dz4G4GM2qhA3vl9-M-63" vertex="1" connectable="0">
          <mxGeometry width="160" height="138" as="geometry" />
        </mxCell>
        <mxCell id="R52Dz4G4GM2qhA3vl9-M-62" value="Out Traffic" style="ellipse;shape=cloud;whiteSpace=wrap;html=1;fillColor=none;labelPosition=center;verticalLabelPosition=top;align=center;verticalAlign=bottom;" parent="R52Dz4G4GM2qhA3vl9-M-64" vertex="1">
          <mxGeometry width="160" height="138" as="geometry" />
        </mxCell>
        <mxCell id="R52Dz4G4GM2qhA3vl9-M-61" value="" style="shape=image;html=1;verticalAlign=top;verticalLabelPosition=bottom;labelBackgroundColor=#ffffff;imageAspect=0;aspect=fixed;image=https://cdn0.iconfinder.com/data/icons/simpline-mix/64/simpline_43-128.png;shadow=0;glass=0;dashed=1;fillColor=none;" parent="R52Dz4G4GM2qhA3vl9-M-64" vertex="1">
          <mxGeometry x="36" y="25.5" width="88" height="88" as="geometry" />
        </mxCell>
        <mxCell id="R52Dz4G4GM2qhA3vl9-M-69" value="" style="endArrow=classic;html=1;exitX=0.855;exitY=0.855;exitDx=0;exitDy=0;exitPerimeter=0;entryX=0;entryY=0.5;entryDx=0;entryDy=0;entryPerimeter=0;" parent="1" source="R52Dz4G4GM2qhA3vl9-M-59" target="MO3H3YX76H6KMcnUmve5-1" edge="1">
          <mxGeometry width="50" height="50" relative="1" as="geometry">
            <mxPoint x="210" y="440" as="sourcePoint" />
            <mxPoint x="325" y="566.8800000000003" as="targetPoint" />
          </mxGeometry>
        </mxCell>
        <mxCell id="R52Dz4G4GM2qhA3vl9-M-70" value="" style="group" parent="1" vertex="1" connectable="0">
          <mxGeometry x="291" y="448" width="120" height="202.5" as="geometry" />
        </mxCell>
        <mxCell id="MO3H3YX76H6KMcnUmve5-2" value="" style="group" parent="R52Dz4G4GM2qhA3vl9-M-70" vertex="1" connectable="0">
          <mxGeometry y="15.5" width="120" height="187" as="geometry" />
        </mxCell>
        <mxCell id="R52Dz4G4GM2qhA3vl9-M-66" value="" style="rounded=1;whiteSpace=wrap;html=1;shadow=0;glass=0;dashed=1;fillColor=none;" parent="MO3H3YX76H6KMcnUmve5-2" vertex="1">
          <mxGeometry y="20" width="120" height="153.75" as="geometry" />
        </mxCell>
        <mxCell id="R52Dz4G4GM2qhA3vl9-M-67" value="Subnet" style="verticalLabelPosition=bottom;html=1;verticalAlign=top;align=center;strokeColor=none;fillColor=#00BEF2;shape=mxgraph.azure.virtual_network;pointerEvents=1;shadow=0;glass=0;dashed=1;container=0;" parent="MO3H3YX76H6KMcnUmve5-2" vertex="1">
          <mxGeometry x="35" y="159.5" width="50" height="27.500000000000004" as="geometry" />
        </mxCell>
        <mxCell id="R52Dz4G4GM2qhA3vl9-M-68" value="NSG" style="shape=image;html=1;verticalAlign=top;verticalLabelPosition=bottom;labelBackgroundColor=#ffffff;imageAspect=0;aspect=fixed;image=https://cdn0.iconfinder.com/data/icons/small-n-flat/24/678094-shield-128.png;shadow=0;glass=0;dashed=1;fillColor=none;container=0;" parent="MO3H3YX76H6KMcnUmve5-2" vertex="1">
          <mxGeometry x="40" width="40" height="40" as="geometry" />
        </mxCell>
        <mxCell id="MO3H3YX76H6KMcnUmve5-1" value="Firewall" style="aspect=fixed;pointerEvents=1;shadow=0;dashed=0;html=1;strokeColor=none;labelPosition=center;verticalLabelPosition=bottom;verticalAlign=top;align=center;fillColor=#00188D;shape=mxgraph.mscae.enterprise.firewall;glass=0;labelBackgroundColor=#ffffff;" parent="MO3H3YX76H6KMcnUmve5-2" vertex="1">
          <mxGeometry x="35" y="74.87" width="50" height="44" as="geometry" />
        </mxCell>
        <mxCell id="R52Dz4G4GM2qhA3vl9-M-71" value="" style="endArrow=classic;html=1;exitX=1;exitY=0.5;exitDx=0;exitDy=0;exitPerimeter=0;entryX=0.16;entryY=0.55;entryDx=0;entryDy=0;entryPerimeter=0;" parent="1" source="MO3H3YX76H6KMcnUmve5-1" target="R52Dz4G4GM2qhA3vl9-M-62" edge="1">
          <mxGeometry width="50" height="50" relative="1" as="geometry">
            <mxPoint x="375" y="566.8800000000003" as="sourcePoint" />
            <mxPoint x="235" y="561.3800000000001" as="targetPoint" />
          </mxGeometry>
        </mxCell>
        <mxCell id="R52Dz4G4GM2qhA3vl9-M-73" value="" style="endArrow=classic;html=1;entryX=0.75;entryY=0;entryDx=0;entryDy=0;rounded=1;" parent="1" source="R52Dz4G4GM2qhA3vl9-M-50" target="R52Dz4G4GM2qhA3vl9-M-35" edge="1">
          <mxGeometry width="50" height="50" relative="1" as="geometry">
            <mxPoint x="-30" y="80" as="sourcePoint" />
            <mxPoint x="90" y="60" as="targetPoint" />
            <Array as="points">
              <mxPoint x="143" y="-65" />
            </Array>
          </mxGeometry>
        </mxCell>
        <mxCell id="R52Dz4G4GM2qhA3vl9-M-82" value="" style="group" parent="1" vertex="1" connectable="0">
          <mxGeometry x="-30" y="250" width="230" height="187.5" as="geometry" />
        </mxCell>
        <mxCell id="R52Dz4G4GM2qhA3vl9-M-35" value="" style="rounded=1;whiteSpace=wrap;html=1;shadow=0;glass=0;dashed=1;fillColor=none;" parent="R52Dz4G4GM2qhA3vl9-M-82" vertex="1">
          <mxGeometry y="15" width="230" height="160" as="geometry" />
        </mxCell>
        <mxCell id="R52Dz4G4GM2qhA3vl9-M-36" value="Subnet" style="verticalLabelPosition=bottom;html=1;verticalAlign=top;align=center;strokeColor=none;fillColor=#00BEF2;shape=mxgraph.azure.virtual_network;pointerEvents=1;shadow=0;glass=0;dashed=1;container=0;" parent="R52Dz4G4GM2qhA3vl9-M-82" vertex="1">
          <mxGeometry x="90" y="160" width="50" height="27.500000000000004" as="geometry" />
        </mxCell>
        <mxCell id="R52Dz4G4GM2qhA3vl9-M-42" value="NSG" style="shape=image;html=1;verticalAlign=top;verticalLabelPosition=bottom;labelBackgroundColor=#ffffff;imageAspect=0;aspect=fixed;image=https://cdn0.iconfinder.com/data/icons/small-n-flat/24/678094-shield-128.png;shadow=0;glass=0;dashed=1;fillColor=none;container=0;" parent="R52Dz4G4GM2qhA3vl9-M-82" vertex="1">
          <mxGeometry x="95" width="40" height="40" as="geometry" />
        </mxCell>
        <mxCell id="R52Dz4G4GM2qhA3vl9-M-43" value="ILB???" style="verticalLabelPosition=bottom;html=1;verticalAlign=top;align=center;strokeColor=none;fillColor=#00BEF2;shape=mxgraph.azure.load_balancer_generic;pointerEvents=1;shadow=0;glass=0;dashed=1;" parent="R52Dz4G4GM2qhA3vl9-M-82" vertex="1">
          <mxGeometry x="40" y="66.25" width="37.5" height="50" as="geometry" />
        </mxCell>
        <mxCell id="R52Dz4G4GM2qhA3vl9-M-59" value="Web&amp;nbsp;App" style="verticalLabelPosition=bottom;html=1;verticalAlign=top;align=center;strokeColor=none;fillColor=#00BEF2;shape=mxgraph.azure.azure_website;pointerEvents=1;shadow=0;glass=0;dashed=1;" parent="R52Dz4G4GM2qhA3vl9-M-82" vertex="1">
          <mxGeometry x="150" y="66.25" width="50" height="50" as="geometry" />
        </mxCell>
        <mxCell id="R52Dz4G4GM2qhA3vl9-M-84" value="" style="group" parent="1" vertex="1" connectable="0">
          <mxGeometry x="-160" y="240" width="80" height="197.5" as="geometry" />
        </mxCell>
        <mxCell id="R52Dz4G4GM2qhA3vl9-M-29" value="" style="rounded=1;whiteSpace=wrap;html=1;shadow=0;glass=0;dashed=1;fillColor=none;container=0;" parent="R52Dz4G4GM2qhA3vl9-M-84" vertex="1">
          <mxGeometry y="18.75" width="80" height="165" as="geometry" />
        </mxCell>
        <mxCell id="R52Dz4G4GM2qhA3vl9-M-10" value="WAF" style="verticalLabelPosition=bottom;html=1;verticalAlign=top;align=center;strokeColor=none;fillColor=#00BEF2;shape=mxgraph.azure.azure_load_balancer;shadow=0;glass=0;dashed=1;container=0;" parent="R52Dz4G4GM2qhA3vl9-M-84" vertex="1">
          <mxGeometry x="15" y="83.75" width="50" height="35" as="geometry" />
        </mxCell>
        <mxCell id="R52Dz4G4GM2qhA3vl9-M-13" value="Subnet" style="verticalLabelPosition=bottom;html=1;verticalAlign=top;align=center;strokeColor=none;fillColor=#00BEF2;shape=mxgraph.azure.virtual_network;pointerEvents=1;shadow=0;glass=0;dashed=1;container=0;" parent="R52Dz4G4GM2qhA3vl9-M-84" vertex="1">
          <mxGeometry x="15" y="170" width="50" height="27.500000000000004" as="geometry" />
        </mxCell>
        <mxCell id="R52Dz4G4GM2qhA3vl9-M-24" value="NSG" style="shape=image;html=1;verticalAlign=top;verticalLabelPosition=bottom;labelBackgroundColor=#ffffff;imageAspect=0;aspect=fixed;image=https://cdn0.iconfinder.com/data/icons/small-n-flat/24/678094-shield-128.png;shadow=0;glass=0;dashed=1;fillColor=none;container=0;" parent="R52Dz4G4GM2qhA3vl9-M-84" vertex="1">
          <mxGeometry x="20" width="40" height="40" as="geometry" />
        </mxCell>
        <mxCell id="R52Dz4G4GM2qhA3vl9-M-85" value="" style="endArrow=classic;html=1;rounded=1;entryX=0;entryY=0.5;entryDx=0;entryDy=0;exitX=1;exitY=0.5;exitDx=0;exitDy=0;" parent="1" source="R52Dz4G4GM2qhA3vl9-M-50" target="R52Dz4G4GM2qhA3vl9-M-77" edge="1">
          <mxGeometry width="50" height="50" relative="1" as="geometry">
            <mxPoint x="230" y="-40" as="sourcePoint" />
            <mxPoint x="153" y="280" as="targetPoint" />
            <Array as="points">
              <mxPoint x="240" y="-65" />
              <mxPoint x="240" y="113" />
            </Array>
          </mxGeometry>
        </mxCell>
        <mxCell id="R52Dz4G4GM2qhA3vl9-M-90" value="Log&lt;br&gt;data" style="edgeLabel;html=1;align=center;verticalAlign=middle;resizable=0;points=[];" parent="R52Dz4G4GM2qhA3vl9-M-85" vertex="1" connectable="0">
          <mxGeometry x="0.2181" y="3" relative="1" as="geometry">
            <mxPoint x="-3" y="-18" as="offset" />
          </mxGeometry>
        </mxCell>
        <mxCell id="R52Dz4G4GM2qhA3vl9-M-88" value="" style="endArrow=classic;html=1;strokeColor=#000000;exitX=1;exitY=0.5;exitDx=0;exitDy=0;exitPerimeter=0;entryX=0.824;entryY=1.013;entryDx=0;entryDy=0;entryPerimeter=0;" parent="1" source="R52Dz4G4GM2qhA3vl9-M-14" target="R52Dz4G4GM2qhA3vl9-M-77" edge="1">
          <mxGeometry width="50" height="50" relative="1" as="geometry">
            <mxPoint x="190" y="210" as="sourcePoint" />
            <mxPoint x="410" y="113" as="targetPoint" />
            <Array as="points">
              <mxPoint x="430" y="341" />
              <mxPoint x="430" y="220" />
            </Array>
          </mxGeometry>
        </mxCell>
        <mxCell id="R52Dz4G4GM2qhA3vl9-M-89" value="Log&lt;br&gt;Data" style="edgeLabel;html=1;align=center;verticalAlign=middle;resizable=0;points=[];labelBackgroundColor=#ffffff;" parent="R52Dz4G4GM2qhA3vl9-M-88" vertex="1" connectable="0">
          <mxGeometry x="0.0821" y="1" relative="1" as="geometry">
            <mxPoint y="-48.25" as="offset" />
          </mxGeometry>
        </mxCell>
        <mxCell id="R52Dz4G4GM2qhA3vl9-M-81" value="" style="group" parent="1" vertex="1" connectable="0">
          <mxGeometry x="290" y="10" width="180" height="197.5" as="geometry" />
        </mxCell>
        <mxCell id="R52Dz4G4GM2qhA3vl9-M-95" value="" style="group" parent="R52Dz4G4GM2qhA3vl9-M-81" vertex="1" connectable="0">
          <mxGeometry y="10" width="170" height="187.5" as="geometry" />
        </mxCell>
        <mxCell id="R52Dz4G4GM2qhA3vl9-M-77" value="" style="rounded=1;whiteSpace=wrap;html=1;shadow=0;glass=0;dashed=1;fillColor=none;" parent="R52Dz4G4GM2qhA3vl9-M-95" vertex="1">
          <mxGeometry y="16.25" width="170" height="153.75" as="geometry" />
        </mxCell>
        <mxCell id="R52Dz4G4GM2qhA3vl9-M-79" value="Subnet" style="verticalLabelPosition=bottom;html=1;verticalAlign=top;align=center;strokeColor=none;fillColor=#00BEF2;shape=mxgraph.azure.virtual_network;pointerEvents=1;shadow=0;glass=0;dashed=1;container=0;" parent="R52Dz4G4GM2qhA3vl9-M-95" vertex="1">
          <mxGeometry x="62.37157894736842" y="160" width="55.26315789473684" height="27.500000000000004" as="geometry" />
        </mxCell>
        <mxCell id="R52Dz4G4GM2qhA3vl9-M-80" value="NSG" style="shape=image;html=1;verticalAlign=top;verticalLabelPosition=bottom;labelBackgroundColor=#ffffff;imageAspect=0;aspect=fixed;image=https://cdn0.iconfinder.com/data/icons/small-n-flat/24/678094-shield-128.png;shadow=0;glass=0;dashed=1;fillColor=none;container=0;" parent="R52Dz4G4GM2qhA3vl9-M-95" vertex="1">
          <mxGeometry x="71.05473684210527" width="37.89473684210526" height="37.89473684210526" as="geometry" />
        </mxCell>
        <mxCell id="R52Dz4G4GM2qhA3vl9-M-15" value="storage blob" style="verticalLabelPosition=bottom;html=1;verticalAlign=top;align=center;strokeColor=none;fillColor=#00BEF2;shape=mxgraph.azure.storage_blob;shadow=0;glass=0;dashed=1;" parent="R52Dz4G4GM2qhA3vl9-M-95" vertex="1">
          <mxGeometry x="18.950526315789478" y="66.25" width="55.26315789473684" height="45" as="geometry" />
        </mxCell>
        <mxCell id="R52Dz4G4GM2qhA3vl9-M-91" value="Event Hub" style="aspect=fixed;html=1;points=[];align=center;image;fontSize=12;image=img/lib/mscae/Event_Hub_Clusters.svg;shadow=0;glass=0;dashed=1;labelBackgroundColor=#ffffff;fillColor=none;" parent="R52Dz4G4GM2qhA3vl9-M-95" vertex="1">
          <mxGeometry x="108.94789473684213" y="66.01" width="47.368421052631575" height="45.473684210526315" as="geometry" />
        </mxCell>
        <mxCell id="R52Dz4G4GM2qhA3vl9-M-17" value="Virtual network" style="verticalLabelPosition=bottom;html=1;verticalAlign=top;align=center;strokeColor=none;fillColor=#00BEF2;shape=mxgraph.azure.virtual_network;pointerEvents=1;shadow=0;glass=0;dashed=1;" parent="1" vertex="1">
          <mxGeometry x="165" y="670" width="50" height="27.500000000000004" as="geometry" />
        </mxCell>
        <mxCell id="R52Dz4G4GM2qhA3vl9-M-1" value="Internet" style="ellipse;shape=cloud;whiteSpace=wrap;html=1;fillColor=none;" parent="1" vertex="1">
          <mxGeometry x="-411" y="302" width="120" height="80" as="geometry" />
        </mxCell>
        <mxCell id="R52Dz4G4GM2qhA3vl9-M-86" value="" style="aspect=fixed;html=1;points=[];align=center;image;fontSize=12;image=img/lib/azure2/networking/DNS_Zones.svg;shadow=0;glass=0;dashed=1;fillColor=none;" parent="1" vertex="1">
          <mxGeometry x="-376" y="480" width="64" height="64" as="geometry" />
        </mxCell>
        <mxCell id="R52Dz4G4GM2qhA3vl9-M-87" value="" style="endArrow=none;dashed=1;html=1;dashPattern=1 3;strokeWidth=2;exitX=0.484;exitY=0;exitDx=0;exitDy=0;exitPerimeter=0;entryX=0.55;entryY=0.95;entryDx=0;entryDy=0;entryPerimeter=0;" parent="1" source="R52Dz4G4GM2qhA3vl9-M-86" target="R52Dz4G4GM2qhA3vl9-M-1" edge="1">
          <mxGeometry x="-411" y="302" width="50" height="50" as="geometry">
            <mxPoint x="-811" y="762" as="sourcePoint" />
            <mxPoint x="-741" y="692" as="targetPoint" />
          </mxGeometry>
        </mxCell>
        <mxCell id="MO3H3YX76H6KMcnUmve5-5" value="" style="edgeStyle=orthogonalEdgeStyle;rounded=1;orthogonalLoop=1;jettySize=auto;html=1;strokeColor=#000000;" parent="1" source="MO3H3YX76H6KMcnUmve5-3" target="MO3H3YX76H6KMcnUmve5-4" edge="1">
          <mxGeometry relative="1" as="geometry" />
        </mxCell>
        <mxCell id="MO3H3YX76H6KMcnUmve5-3" value="Azure DevOps&lt;br&gt;Pipeline" style="outlineConnect=0;fontColor=#232F3E;gradientColor=none;fillColor=#277116;strokeColor=none;dashed=0;verticalLabelPosition=bottom;verticalAlign=top;align=center;html=1;fontSize=12;fontStyle=0;aspect=fixed;pointerEvents=1;shape=mxgraph.aws4.iot_analytics_pipeline;shadow=0;glass=0;labelBackgroundColor=#ffffff;" parent="1" vertex="1">
          <mxGeometry x="-390" y="783" width="78" height="42" as="geometry" />
        </mxCell>
        <mxCell id="MO3H3YX76H6KMcnUmve5-7" value="" style="edgeStyle=orthogonalEdgeStyle;rounded=1;orthogonalLoop=1;jettySize=auto;html=1;strokeColor=#000000;" parent="1" source="MO3H3YX76H6KMcnUmve5-4" target="MO3H3YX76H6KMcnUmve5-6" edge="1">
          <mxGeometry relative="1" as="geometry" />
        </mxCell>
        <mxCell id="MO3H3YX76H6KMcnUmve5-4" value="Subscription" style="verticalLabelPosition=bottom;html=1;verticalAlign=top;align=center;strokeColor=none;fillColor=#00BEF2;shape=mxgraph.azure.azure_subscription;shadow=0;glass=0;dashed=1;labelBackgroundColor=#ffffff;" parent="1" vertex="1">
          <mxGeometry x="-213" y="787" width="50" height="35" as="geometry" />
        </mxCell>
        <mxCell id="MO3H3YX76H6KMcnUmve5-6" value="Deploy" style="aspect=fixed;perimeter=ellipsePerimeter;html=1;align=center;shadow=0;dashed=0;fontColor=#4277BB;labelBackgroundColor=#ffffff;fontSize=12;spacingTop=3;image;image=img/lib/ibm/devops/continuous_deploy.svg;glass=0;fillColor=none;" parent="1" vertex="1">
          <mxGeometry x="-50" y="774.5" width="60" height="60" as="geometry" />
        </mxCell>
        <mxCell id="MO3H3YX76H6KMcnUmve5-9" value="Vulnerability&lt;br&gt;Management" style="verticalLabelPosition=bottom;html=1;fillColor=#282828;strokeColor=none;verticalAlign=top;pointerEvents=1;align=center;shape=mxgraph.cisco_safe.security_icons.vulnerability_management;shadow=0;glass=0;dashed=1;labelBackgroundColor=#ffffff;" parent="1" vertex="1">
          <mxGeometry x="384" y="-95" width="50" height="50" as="geometry" />
        </mxCell>
        <mxCell id="MO3H3YX76H6KMcnUmve5-10" value="" style="endArrow=classic;html=1;strokeColor=#000000;exitX=0.948;exitY=0.492;exitDx=0;exitDy=0;exitPerimeter=0;entryX=1;entryY=0.5;entryDx=0;entryDy=0;" parent="1" source="MO3H3YX76H6KMcnUmve5-9" target="R52Dz4G4GM2qhA3vl9-M-77" edge="1">
          <mxGeometry width="50" height="50" relative="1" as="geometry">
            <mxPoint x="535" y="-56" as="sourcePoint" />
            <mxPoint x="585" y="-106" as="targetPoint" />
            <Array as="points">
              <mxPoint x="491" y="-70" />
              <mxPoint x="491" y="113" />
            </Array>
          </mxGeometry>
        </mxCell>
        <mxCell id="gUVkCB3nNi4wrAsbbBJD-1" value="" style="endArrow=classic;html=1;exitX=1;exitY=0;exitDx=0;exitDy=0;entryX=0.5;entryY=1;entryDx=0;entryDy=0;entryPerimeter=0;" edge="1" parent="1" source="MO3H3YX76H6KMcnUmve5-6" target="R52Dz4G4GM2qhA3vl9-M-59">
          <mxGeometry width="50" height="50" relative="1" as="geometry">
            <mxPoint x="149" y="600" as="sourcePoint" />
            <mxPoint x="199" y="550" as="targetPoint" />
            <Array as="points">
              <mxPoint x="145" y="541" />
            </Array>
          </mxGeometry>
        </mxCell>
      </root>
    </mxGraphModel>
  </diagram>
</mxfile>
